/* XPM */
static char * forkdown_xpm[] = {
"20 20 4 1",
" 	c None",
".	c #000000",
"+	c #0EEF77",
"@	c #AFAEAE",
"....................",
".++++++++++++++++++.",
".+++++++....+++++++.",
".+++++++....+++++++.",
".+++++++....+++++++.",
".+++++++....+++++++.",
".+++++++....+++++++.",
".+++++++....+++++++.",
".+++++++....+++++++.",
".+++++++....+++++++.",
".++++..@@@@@@@.++++.",
".++++.@...@...@++++.",
".++++.@++.@++.@++++.",
".++++.@++.@++.@++++.",
".++++.@++.@++.@++++.",
".++++.@++.@++.@++++.",
".++++.@++.@++.@++++.",
".++++.@++.@++.@++++.",
".++++++++++++++++++.",
"...................."};
