/* XPM */
static char * horizborder_xpm[] = {
"246 20 256 2",
"  	c None",
". 	c #020204",
"+ 	c #0286E2",
"@ 	c #BA020C",
"# 	c #B08D04",
"$ 	c #C65604",
"% 	c #02CA35",
"& 	c #C80224",
"* 	c #DE2A04",
"= 	c #07E80F",
"- 	c #0247C9",
"; 	c #C702B7",
"> 	c #4502DF",
", 	c #C1D604",
"' 	c #02C889",
") 	c #07AE04",
"! 	c #BE6B04",
"~ 	c #FE248C",
"{ 	c #0222F4",
"] 	c #46B604",
"^ 	c #02B285",
"/ 	c #04D90E",
"( 	c #EB0308",
"_ 	c #ED9104",
": 	c #E9029E",
"< 	c #0604D0",
"[ 	c #E24304",
"} 	c #2202B4",
"| 	c #3EFE2C",
"1 	c #FE45A9",
"2 	c #A2FE1C",
"3 	c #02EE8C",
"4 	c #4622FC",
"5 	c #FE1529",
"6 	c #D2A204",
"7 	c #FE3691",
"8 	c #FE13A2",
"9 	c #6902E3",
"0 	c #FEC4E4",
"a 	c #E7025F",
"b 	c #FE42D8",
"c 	c #02B8A7",
"d 	c #02D9A6",
"e 	c #02D655",
"f 	c #02BE53",
"g 	c #02C860",
"h 	c #D16304",
"i 	c #E83504",
"j 	c #3013FC",
"k 	c #FED4E6",
"l 	c #4813FC",
"m 	c #FEA5D9",
"n 	c #E705F9",
"o 	c #B63B04",
"p 	c #0215C4",
"q 	c #FEB5DA",
"r 	c #1EFE2C",
"s 	c #24FEDA",
"t 	c #F632FC",
"u 	c #02B6E0",
"v 	c #0299C0",
"w 	c #17D804",
"x 	c #3702D8",
"y 	c #5A02CF",
"z 	c #F30304",
"A 	c #FE68AE",
"B 	c #8502E9",
"C 	c #FE5194",
"D 	c #FE346E",
"E 	c #026EBC",
"F 	c #02C6D6",
"G 	c #FE22D4",
"H 	c #02EAE3",
"I 	c #FECDE2",
"J 	c #0EFE0C",
"K 	c #FE83C9",
"L 	c #1702D1",
"M 	c #02CF56",
"N 	c #4242FC",
"O 	c #02E125",
"P 	c #D45804",
"Q 	c #FE3BAF",
"R 	c #FE1DDA",
"S 	c #02C0AD",
"T 	c #02BB6C",
"U 	c #CA1204",
"V 	c #2BAD04",
"W 	c #FE52DB",
"X 	c #FE3204",
"Y 	c #B80294",
"Z 	c #C802EC",
"` 	c #FE2DB7",
" .	c #F90395",
"..	c #DFFE24",
"+.	c #FE0653",
"@.	c #02D6E9",
"#.	c #F67A04",
"$.	c #02D015",
"%.	c #460AFC",
"&.	c #02B04B",
"*.	c #0236B9",
"=.	c #FE1DA4",
"-.	c #7A02CF",
";.	c #FEBCE1",
">.	c #2299FC",
",.	c #3B05FB",
"'.	c #FE97CE",
").	c #82AB04",
"!.	c #02E861",
"~.	c #FE4AAD",
"{.	c #FC6706",
"].	c #FEADDE",
"^.	c #FE06D2",
"/.	c #FE0E27",
"(.	c #C7025F",
"_.	c #02A7C3",
":.	c #F04904",
"<.	c #FE144C",
"[.	c #FE35BA",
"}.	c #FEDCEB",
"|.	c #02F6F4",
"1.	c #FEE3F1",
"2.	c #FE0B5D",
"3.	c #228AFC",
"4.	c #4604F7",
"5.	c #02CEAB",
"6.	c #EA0E04",
"7.	c #2B03F8",
"8.	c #FD42F3",
"9.	c #9A66FC",
"0.	c #8232FC",
"a.	c #924AFC",
"b.	c #4AFEB4",
"c.	c #E2C604",
"d.	c #DEBE04",
"e.	c #FE72C4",
"f.	c #025EC4",
"g.	c #5E52FC",
"h.	c #B3AE04",
"i.	c #A702DB",
"j.	c #243EFC",
"k.	c #027EEC",
"l.	c #FE262E",
"m.	c #2E46FC",
"n.	c #4638FC",
"o.	c #C646FC",
"p.	c #04FCA0",
"q.	c #FEAA34",
"r.	c #F85404",
"s.	c #B97B04",
"t.	c #B8A004",
"u.	c #02FA66",
"v.	c #26D2FC",
"w.	c #2A5AFC",
"x.	c #6AFE0E",
"y.	c #FED620",
"z.	c #A612FC",
"A.	c #E262FC",
"B.	c #2622FC",
"C.	c #CAFE1C",
"D.	c #5246FC",
"E.	c #FEF62C",
"F.	c #1ED6FC",
"G.	c #226AFC",
"H.	c #22FE54",
"I.	c #9602D4",
"J.	c #0712F9",
"K.	c #DACE04",
"L.	c #DA02CC",
"M.	c #02BEC4",
"N.	c #FE0EA0",
"O.	c #720EFC",
"P.	c #B20243",
"Q.	c #028EC1",
"R.	c #D702A8",
"S.	c #DB0268",
"T.	c #FEC634",
"U.	c #BA02F8",
"V.	c #8ABA04",
"W.	c #FC1C0C",
"X.	c #FE3DC7",
"Y.	c #17FBEF",
"Z.	c #5E16FC",
"`.	c #02F22C",
" +	c #FE0EC4",
".+	c #DE0604",
"++	c #0252F4",
"@+	c #FE3C54",
"#+	c #02D2E5",
"$+	c #FE3C23",
"%+	c #FE1E74",
"&+	c #36FEEC",
"*+	c #03DEE1",
"=+	c #FE2DD4",
"-+	c #02EF56",
";+	c #FE8E2C",
">+	c #16F2FC",
",+	c #680EFC",
"'+	c #E94B04",
")+	c #FE265C",
"!+	c #9A0EFC",
"~+	c #17FE71",
"{+	c #02E2B8",
"]+	c #02E04F",
"^+	c #5A03F7",
"/+	c #FE6A34",
"(+	c #1AFEA4",
"_+	c #36FE14",
":+	c #1A06FB",
"<+	c #E33C04",
"[+	c #474BFC",
"}+	c #8E70FC",
"|+	c #FA5E04",
"1+	c #022DE4",
"2+	c #02A0CC",
"3+	c #02B0C2",
"4+	c #02F1C2",
"5+	c #FE53B2",
"6+	c #0235E5",
"7+	c #0256FC",
"8+	c #280CFC",
"9+	c #3D15FC",
"0+	c #DA1704",
"a+	c #5838FC",
"b+	c #021EB4",
"c+	c #FE8CC1",
"d+	c #021EF4",
"e+	c #02AA33",
"f+	c #FD032D",
"g+	c #F602AF",
"h+	c #0CC2FC",
"i+	c #18DF04",
"j+	c #0292DF",
"k+	c #D10AFC",
"l+	c #5EB604",
"m+	c #DE0AFC",
"n+	c #CE6C04",
"o+	c #625EFC",
"p+	c #FE7BBF",
"q+	c #02B06E",
"r+	c #2E52FC",
"s+	c #FC0270",
"t+	c #7A05FC",
"u+	c #FA3AF0",
"v+	c #04FED9",
"w+	c #02EA31",
"x+	c #E5022B",
"y+	c #0704FB",
"z+	c #FD4604",
"A+	c #624EFC",
"B+	c #02D132",
"C+	c #FD04F1",
"D+	c #02C6BC",
"E+	c #FE24B5",
"F+	c #02D16E",
"G+	c #FE1278",
".                                                                                                                                                                                                                                                                                                                                                                                                                                                                                                         . ",
". .                                                                                                                                                                                                                                                                                                                                                                                                                                                                                                     . . ",
". . .                                                                                                                                                                                                                                                                                                                                                                                                                                                                                                 . . . ",
". . . .                                                                                                                                                                                                                                                                                                                                                                                                                                                                                             . . . . ",
". . . . .                                                                                                                                                                                                                                                                                                                                                                                                                                                                                         . . . . . ",
". . . . . }.k 1.0 ;.'.].W Y.f+s.[ i n+X.~ 5 W.C l.n+n+h.h l+c |+a.o.<+h.] h.2+2+_.M.3+@.H 4+5.{+4+{+^ ' c d F {+2+|.H F F d M.3+2+3 @.H @.|.D+g V P.P.g % e g B+$.O / !.w+#+u.J / = / O w = O -+/ `.3 u.k.1+u.9+Y.j+++6++ j+j+2+]+`./ = B+/ g f.5.]+v F+f ' g e f {+S d c ]+5.g o !+; T v T q+t.# o h.t.) f ) f T D+f d %.a 6.{./.X.[.1 8.W [.W 8.W b W b W b W b W W W ~.W 8.W b W 8.W b Q W.l.5 {.( Z.U.9+Q.e e `.3+F+6.#+;.I 0 1.k 1.k 1.k 1.k 1.k 1.k 1.}.1.}.1.}.1.1.1.I 1.k }.}.}.I 0 ].I q . . . . . ",
". . . . . ].I ;.;.].e.5+~.W j.2.f+2.2.D c+T.[.>.m.'+l+! h.t.l+c X o.<.V.h.P h._.V V [ M.d {+{+d H 5.T ^ T D+F *+d {+v @.@.#+H H d u 4+v u @.*+#+v ^ q+q+c p ^ B+$.O `.u.@.p.w+i+w w / ]+$./ / ]+3 j+7.9 t+^+L 7.y+{ 6+:+j+{ { p.`./ O w w B+U.8 ^.C+W.2 2 x.R.c &.% q+g % D+' T q+&.^ f q+q+).).q+c c e+e+^ T f f f < ,+k+( :.|+|+E+Q [.b b b 8.8.b 8.8.8.b b X.1 b b b b b b 8.b b 8.u+b [.X.Q %+5 r.g+L $.$.O e+&+C c+q k I k 1.}.0 k k k k }.k k }.k k }.1.1.1.}.}.1.I }.k I I I ;.I I I I q q . . . . . ",
". . . . . 1 C 7 1 A 1 1 ~.b.` %++.G+Y.D p+` E+s >+W._.S D+s.h.3+] l.o.'+c S 2+s.P h.o &.D+H H H {+5.^ 5.5.{+4+#+v+H d H *+u d F F d F F F d #+M.d F {+' ' ' e / B+O !.v+v+v+= / w / O / O e 3 u.6+4.(.o+A+A+W [.> %.j :+:+y+j++ + e ]+/ i+$.n H.v.>.w.N [+[+/+I.p q+v Y T f Y (.^ M ^ e+).q+q+^ D+c ^ c ' B+$.T L i.^+Z.O.k+x+[ =.%+X.b 8.X.X.8.b ~.8.8.8.b b b b b b b 8.b b b b b b b b b X.E+[.5 x+7.- / / M G+~ ;.q I I k k k I }.}.}.k }.k k 1.}.k }.}.1.}.}.k k I k k K ~+r 1 0 0 ;.0 ;.q ;.. . . . . ",
". . . . . =.2.R.s+W 1 ~.7 q.a x+f+=.(+A 7 1 _++.E+~ c v c F _.u u ! @+( M.Q.2+2+3+).W.* q+j+#+u H 5._.v 5.{+H |.H {+D+D+3+^ ^ 5.F d F d *+3+3+5.F d Q.2+2+D+5.5.q+M |.5.u.u.= $./ O O {+]+3 6+6+y+7.7.; U 2.B i.,.,.%.9+9+:+d+d+6+3 O e B+e B 2.y.E.x.F.F.J C+*.b+% f &.Q.@ o T D+^ q+q+&.c 5.5.F D+F+e $.% ^+2.y.a l %.%.^+S.#.#.G+E+[.[.X.[.b X.[.b b b b b X.X.[.[.X.b 1 b X.b b X.X.X.X.b [.` G+S.y+6+/ d E f ; H.s A 0 I k }.k I 1.1.}.1.}.1.}.}.1.1.}.}.}.k k k q m v+^.f M y @+t m 0 ;.q ].. . . . . ",
". . . . . f+* -.2.[.1 W N a f a 6.G+Y.~.5+~.j.7 <.a c 2+S F _.2+#+S %+W.3+2+2+v D+u $ $+:.&.u 2+2+v 2+F d {+4+@.v+e c S c 3+c D+F F v H v d F d D+M.j+Q.2+M.D+5.F M |.{+{+v+`./ / / O ]+3 + j+k.y+9+,.4.7.7.,.%.%.%.l 9+j 7+:+y++ !.w+e ]+/ 9 ^.m+^.C+^.G+^.> ' ' q+% q+Y @ &.T 5.^ ).3+c ' D+S ' 5.]+/ % % C+=+a :.O.:+7.,.n _ _ _ G+N.G [.[.[.[.X.X.b b X.X.Q X.[.[.b X.X.X.b b X.X.[.[.[.[.X.~ <.$+7.6+]+@.g $.T 8 @+'.0 q k }.}.k }.}.1.}.}.k 1.1.}.1.1.}.1.}.}.0 m p+..S g B+$.I.r ].;.q ;.'.. . . . . ",
". . . . . [ @ a (+(+/+-.*.M F+@ T )+~+'.C 1 0. .g S &.S 5.*+Q.*+#+5.o D ! u d F D+2+Q.t.$+b <+2+2+_.3+H #+4+v+4+4+4+4+2+5.F 3+F d u d #+F F D+F 5.2+3++ + 2+F 3+F #+d M.3+{+]+i+$.O ]+O 3 *+6++ y+8+j %.%.l %.9+,.%.l 9+9+:+:++ + w+]+/ / $.f.*.' M.' D+B+$.% g g &.q+q+o ).^ q+^ q+q+5.5.' u 5.5.!.H % $.$+G.}+n.a+G <.:.t+4.> Z c.#.R N.N. .` ` X.Q X.Q [.[.b X.X.[.b [.[.` [.X.[.[.[.[.[.[.[.E+G++.[ %.F p m++.x.[.t ;.;.0 I k k }.k }.}.}.1.1.1.1.}.1.}.1.}.1.}.I ;.I m (+L.S =.u+'.0 q ;.;.m . . . . . ",
". . . . . f (.Q _+g+$.B+g 5.d c 2+x+: %+8 Z f F+/ H d D+5.{+d #+|.#+#+& & d h+{+F u u u 2+! z+'+M.j+u h+|.*+*+*+*+{+d _._.3+5.F @.|.v+h+|.H F *+*+*+2+Q.c j+5.D+u *+u _.5.{+!.w+/ / / ]+6+6+6+y+d+y+y+%.9+9+9+%.%.9+9+j j :+y+d+w+]+e ]+g S ' f ' % $.$./ O % T &.S ^ ).V ^ c q+&.q+D+c T 3+S 5.d F+!.% B+..F.n.n.n.D.a+{.k+%.4.^+9 9 0+_ +.2.s+G+E+[.` ` =.E+[.` E+=.X.[.` [.[.Q [.` [.G ` ` ` ` ` 2.$+|+: ( B.A.1 p+c+q ;.I k I }.k 1.}.1.1.}.1.1.1.1.1.1.1.}.1.}.k k I k 0 p+1 ].I 0 0 ;.;.].1 . . . . . ",
". . . . . g ^ (.; f % F+/ d F M.S o ^ !.M = = 5.!.#+!.4+{+d B+S 3 H 5.S f+q+{+S 5.F @.u u + c V V Q.@.u |.*+|.!.e 5.F M.D+F 5.5.F #+5.d u F 3+D+D+2+3+Q.2+F 2+F c e+_.2+2+F d / / / / w w O F 6+6+y+8+8+9+9+,.l 9+9+%.9+j :+y++ w+@.<  +=.C.;+..x.: ' B+$.f q+&.q+^ ^ ) &.^ 3+^ ^ q+5.3+c 3+d {+H O d e e D+-  +R R 4 Z.:+1+:+4.U.Z x L.9 c.c._ z ( +.( ( +.8 G+=.=.G+E+=.N.E+` E+[.` R g+8 8 =.G+=.s+_ r.x+( /.9.5+K '.;.;.k 0 k 1.k 1.}.1.1.1.1.1.1.1.1.  1.1.1.}.}.k }.}.I k I I 0 0 0 ;.;.c+5+. . . . . ",
". . . . . M.5.5.{+d d D+3+v F 3+D+s.o S 5.]+{+{+4+4+4+d 4+{+{+H 4+@.|.S x+& D+5.d |.{+@.@.F D+&.V c _.H 4+4+{+{+{+*+D+F d D+5.F 5._.S S _.u 5.3+5.d u u Q.M.v ).! 3+2+F F v F 5.d 5.!.e e / $.$.B+5.@.j+:+j 4 Z.4 %.4 j J.{ k.6+L s+H.~.e.A C 7 s 2.: x ' Y Y ).} P.f e+^ q+# T T v _.Q.Q.3+{+F d {+M ' U.-.!+/.#.{.{.Z.y+6+8+t+[ :.: > 4.x , x x x , 6 , i._ z c.i 8 ( +.i +.R ~ R +.+.+.8 #.s++.+.<+z , 9 S.{.w.1 ~.'.].;.I I 1.k }.1.}.}.1.1.}.1.1.1.1.1.1.1.1.}.}.k }.I }.}.k I I 0 I m ].1 1 . . . . . ",
". . . . . 5.*+5.{+5.{+5.M.F 4+F *+e+$ 5.4+{+4+{+4+{+4+*+|.u v+v+H @.v+#+f 0+V.5.4+H @.4+#+F 4+F *+F+2+{+@.d F M.d F *+d 4+5.4+d 4+{+4+{+{+f D+S 4+*+{+M.V.[ |+[ ' 2+_.F *+F F 5.{+F 4+2+|.F !.5.]+% w+2+H 1+j 8+f.J.J.7.J.7.0+>.W 5+p+q I q 5+s )+2.8 S.R.R.S.P.l P.P.).g q+' c g 3+u 2+u 2+4+5.!.5.d | W ~.A 5+o+}+w.C+J.j+{ z.'+{.0+t+9+4.9+4.l > 9+x 9+,+, d.Z.d.'+<+K.<+q. .8 8 E+8 %+G+~ G+[.+.E+z 6.0+Z.z+G.5+A Q ].;.I I 1.}.1.}.1.}.1.}.1.1.1.1.1.1.1.}.1.1.1.k 1.k 1.k 1.k 1.0 k '.A W >.. . . . . ",
". . . . .                                                                                                                                                                                                                                                                                                                                                                                                                                                                                         . . . . . ",
". . . .                                                                                                                                                                                                                                                                                                                                                                                                                                                                                             . . . . ",
". . .                                                                                                                                                                                                                                                                                                                                                                                                                                                                                                 . . . ",
". .                                                                                                                                                                                                                                                                                                                                                                                                                                                                                                     . . ",
".                                                                                                                                                                                                                                                                                                                                                                                                                                                                                                         . "};
