/* XPM */
static char * inactivetitlebar_xpm[] = {
"100 18 127 2",
"  	c None",
". 	c #9A9A84",
"+ 	c #BEBE94",
"@ 	c #AEAE84",
"# 	c #D6CE94",
"$ 	c #A6A684",
"% 	c #BEB284",
"& 	c #CEBE8C",
"* 	c #B6B68C",
"= 	c #AEA684",
"- 	c #B6AE84",
"; 	c #A69E7C",
"> 	c #CAC68C",
", 	c #CEC68C",
"' 	c #C6BE8C",
") 	c #BEBA84",
"! 	c #CEC69C",
"~ 	c #9EA284",
"{ 	c #DAD6A4",
"] 	c #A2A68C",
"^ 	c #AEA68C",
"/ 	c #B6B284",
"( 	c #C6C28C",
"_ 	c #A29A84",
": 	c #AEAE94",
"< 	c #C6BA8C",
"[ 	c #A6A284",
"} 	c #D6CA94",
"| 	c #AAA68C",
"1 	c #9A9E84",
"2 	c #DAD29C",
"3 	c #BEB684",
"4 	c #CECA94",
"5 	c #D6CA9C",
"6 	c #AEAA8C",
"7 	c #B6B294",
"8 	c #C6C29C",
"9 	c #B2B284",
"0 	c #D6D2A4",
"a 	c #BABA8C",
"b 	c #AEAA7C",
"c 	c #B6AE94",
"d 	c #C6BE9C",
"e 	c #BEBA94",
"f 	c #CECA9C",
"g 	c #E2DAAC",
"h 	c #A6A28C",
"i 	c #C2BE9C",
"j 	c #D2CEA4",
"k 	c #AAAA84",
"l 	c #BAAE84",
"m 	c #CAC69C",
"n 	c #D2C68C",
"o 	c #CABE8C",
"p 	c #DEDAA4",
"q 	c #BAB284",
"r 	c #CAC28C",
"s 	c #B2B294",
"t 	c #AAAA8C",
"u 	c #BEB694",
"v 	c #B2AA8C",
"w 	c #B2AA7C",
"x 	c #9E9A84",
"y 	c #C2BE8C",
"z 	c #B2AE84",
"A 	c #AAA67C",
"B 	c #CEC28C",
"C 	c #BAB68C",
"D 	c #C2BA8C",
"E 	c #A2A284",
"F 	c #A6AA8C",
"G 	c #A29E84",
"H 	c #CABA8C",
"I 	c #AAA27C",
"J 	c #9E9E84",
"K 	c #C2B68C",
"L 	c #D2CAA4",
"M 	c #D6CE9C",
"N 	c #BEB28C",
"O 	c #B6AE8C",
"P 	c #A69E84",
"Q 	c #CAC694",
"R 	c #CEC694",
"S 	c #C6BE94",
"T 	c #BEBA8C",
"U 	c #CEC6A4",
"V 	c #DED6A4",
"W 	c #A6A68C",
"X 	c #AEA694",
"Y 	c #B6B28C",
"Z 	c #C6C294",
"` 	c #B2AE94",
" .	c #C6BA94",
"..	c #AAA694",
"+.	c #BEB68C",
"@.	c #D2CA94",
"#.	c #AEAA94",
"$.	c #BAB294",
"%.	c #CAC29C",
"&.	c #B2B28C",
"*.	c #BABA94",
"=.	c #AEAA84",
"-.	c #C2BA94",
";.	c #CECAA4",
">.	c #AAA28C",
",.	c #D6CEA4",
"'.	c #BAAE8C",
").	c #CAC6A4",
"!.	c #D2C694",
"~.	c #CABE94",
"{.	c #DEDAAC",
"].	c #BAB28C",
"^.	c #CAC294",
"/.	c #B2B29C",
"(.	c #AAAA94",
"_.	c #B2AA94",
":.	c #B2AA84",
"<.	c #9E9A8C",
"[.	c #C2BE94",
"}.	c #B2AE8C",
"|.	c #AAA684",
"1.	c #CEC294",
"2.	c #BAB694",
"3.	c #A2A28C",
"4.	c #A29E8C",
"5.	c #AAA284",
"6.	c #9E9E8C",
"[.[.y y ' S ' ' D D D D < < o o o o o o o o ~.~.< K N ].- :.:.z ].u -.i -.e Y }.=.:.v }.O ].].2.T e e e T e T C ]./ Y ].2.2.2.7 O _.v _.6 | | W t t F ~ . . 1 t : /.` | | | >.>.| ^ #.#.^ ^ >.>.>.6 v v ",
"q q q N T ) D D ' < < o ' B r r B r r o o ^.' ' -.+.3 N N ].'.'.].-.e -.2.'.:.:.= =.9 ].Y * 2.T u D S S S S [.-.z :.:.z O ].O v 6 = >.>.P G h | ] ] 3.J 1 1 J W #.` #.F t : t t | | 5.5.>.>.5.^ v _.c c ",
"- - q 3 < o o ' r ( r B r B n B B B r r o 1.~.o S K +.+.]./ ].].+.-.u C }.v = :.v :.:.Y ].C u T e e [.8 S ~.Z e z b |.=.= :.= ^ ^ |.5.h G x 3.h <.x J J G G G ] $ k |.| |.6 = 6 =.6 v 6 ^ 6 6 ^ ^ | | ^ ",
"l q +.K ' ' ^.& ' o ' r B B o B B r o o o ' ( ' D D K l l '.O N u u $.O :.= = = z }.=.- C -.D -.D D y [.Z 8 [.e :.= A I 5.= ^ = = ^ >.>.P _ G 6.. . . 4.3.$ [ $ k k t k @ @ @ =.6 :.6 v 6 _.6 X v ^ ^ ^ ",
"N K < H 1.& r & o & & B B B r r r r ( r r o & ~.~.y -.+.].+.N +.].].O :.= = :.v O C T [.Z m 8 [.Z e + [.[.d Z [.C z =.=.|.=.^ 6 ^ ^ ^ >.G x x <.. <.J E 4.E [ $ | @ @ k @ z @ @ @ :.=.}.=.v }.` O }.}.}.",
"K D <  .o r 1.r B , B B , > B B r r B r B R ^.r ' S < +.+.N C ].].O :.= = =.O ].-.S %.L j j 0 f m Q ^.m f f m m [.-.+.Y O v =.^ v ^ P P G _ 4.3.P h >.h $ | | }.&.Y Y 9 z z / - O &.Y z }.` &.O c c 7 7 ",
"K K H < o o & r o B , B B > > , , > , > r , ^.^.o -.< K % N ].].N N '.- z z ].+.[.8 m L j j 0 ,.L ;.m m ;.L ;.L ).8 ~.e 2.O :.6 =.= [ ; G [ P h ....^ X 6 @ &.* e e e a a a a a C * C C Y c 7 Y $.2.$.2.",
"K < < o o o r & B r r , , , , > r B r r r Z o ' D D +.% ].].% N N N ].].l '.].u -.' S Z Q f ;.j j j L L ! j j j j ;.).i u ].7 '.'.}.= 5.I P | ^ 6 ` s &.&.2.2.[.+ [.y T T C a a ) C * Y / Y Y $.* Y 2.C ",
"K < ' ' B & r B B B B B B @.n @.4 4 , > B ( ~.' D D +.q q ].% +.3 +.% N 3 +.% +.+.T -.e T S Z %.%.m 8 m m U L ;.L ! ! 8 i -.e 8 i d e 7 }.z &.` Y ].$.2.a e + S Z [.+ a a C C C a C C C C q Y ].2.C 2.C ",
"r o & B ^.Q B > , n , @.} @.# , , > r ^.Z ^.y < D 3 3 ].l q N % N 3 T T +.K +.3 C +.y +.C Y O * C C C Y 2.T + d d 8 m S e e e i m m 8 ~.Z d K T u 2.C +.u e e + + e C C C C a a +.T T a * a a a C *.C *.",
"R R R , B r B r r , n , 4 > 4 > 1.Q > r y ' T 3 +.% % +.K 3 +.+.K K < < y ' < K % +.-.C ].z = = :.v }.:.v v =.z O Y 2.].z :.:.z ].T e -.[.Z [.+ D D e T T T e C C C Y q C ].C a 2.u +.T * C C * / Y / Y ",
"r r r 1.> R r B , B r > r r ( > > r ' y D 3 3 C q C 3 K D D D D D D ' ^.1.1.' D +.+.T ]./ =.w =.=.- ].2.Y / b |.A = - z z A $ A b z / * a T T 3 T T T D D +.T C C ].q Y - Y Y ].C a *.2.a * / 9 9 9 z 9 ",
"R , > B r , r r > > r r r ' S S S ^.' D T 3 K D 3 T D D < < < < ' S r R Q ! r y +.+.].Y '.O - - Y Y ].C Y O = A = =.Y / ].z w = w :.z l Y C a a ) ) T T D +.T ]./ Y - }.z z &.].2.+.T u +.* C q / Y / Y ",
"r r B > > ( > r , , 4 R Q Q ^.r r ' ' ' < D y y r r > ' y y y y r r ^.^.~.' D 3 q l ].'.].+.e u ].l q ].q q z z / q +.+.T q / z b 9 - * T +.3 3 +.K T T + e e C C Y Y z =.=.- / C e e T e T C C * C C C ",
"4 4 , , , ( , r R B , B B ^.^.^.^.Z ( ( r o r r R 1., , r r > ' ~.^.' ' D K K +.+.q q Y ].N +.+.+.C +.u T y T +.T T -.T e T C q - / l / T e + + + y [.y y D e e +.C *.C }.=.z - Y ].C C +.+.u u T 2.T e ",
"@.j # # , @.> R r Q ^.^.Z r r r ' o o ~.r > r Q > 4 4 R R R ^.^.' D < T D T 3 +.% N '.l l - ].].C ].+.D [.e K T K T T T T +.T C ]./ Y ].u T D D D e y T + + y T -.T +.+.- z :.z :.z O Y Y Y * C ].C 7 Y ",
"V { 2 { M M @.5 @.@., B ^.' S ' y ' ( ( ^.R R !.R R Q 4 r o ' y D T 3 +.+.+.q O - - O = :.:.z O ].C u D S [.[.e +.3 C +.T [.Z Z -.T T C +.T + y ( y Z ' ' y [.T D T a e ].* Y / z =.:.:.z :.:.6 =.=.= 6 ",
"{.g {.V V 2 2 0 # } 5 @.@.R r r ( ( o ^.R R @.L @.4 4 Q Q Z S K T K K K K +.N q O '.- :.= :.z q +.K [.S Z Q S ( D T K y [.Z 8 m ;.%.d i i -.y y [.Z y Z [.S y [.T e +.C T u C $.O }.= =.^ = | 5.>.P >.P "};
