/* XPM */
static char * spoon_xpm[] = {
"20 20 5 1",
" 	c None",
".	c #000000",
"+	c #0EEF77",
"@	c #2BF087",
"#	c #AFAEAE",
"....................",
".++++++++++++++++++.",
".+++++++++++...+++@.",
".++++++++++..##..+@.",
".+++++++++..####.++.",
".+++++++++.#####.++.",
".++++++++..#####.++.",
".++++++++.#####..++.",
".++++++++..###..+++.",
".+++++++.......++++.",
".++++++....++++++++.",
".+++++....+++++++++.",
".++++....++++++++++.",
".+++....+++++++++++.",
".++....++++++++++++.",
".++...+++++++++++++.",
".++..++++++++++++++.",
".++++++++++++++++++.",
".++++++++++++++++++.",
"...................."};
