/* XPM */
static char * spoon_down_xpm[] = {
"20 20 5 1",
" 	c None",
".	c #000000",
"+	c #0EEF77",
"@	c #AFAEAE",
"#	c #2BF087",
"....................",
".++++++++++++++++++.",
".++++++++++++++++++.",
".++...+++++++++++++.",
".++....++++++++++++.",
".+++....+++++++++++.",
".++++....++++++++++.",
".+++++....+++++++++.",
".++++++....++++++++.",
".+++++++......+++++.",
".++++++++...@...+++.",
".+++++++++.@@@@..++.",
".+++++++++.@@@@@..+.",
".+++++++++.@@@@@@.+.",
".+++++++++..@@@@@.+.",
".++++++++++..@@@.++.",
".+++++++++++.....++.",
".++++++++++++++++++.",
".+++++++++++++++##+.",
"...................."};
