/* XPM */
static char * titlebar_xpm[] = {
"100 18 256 2",
"  	c None",
". 	c #625E44",
"+ 	c #96964C",
"@ 	c #767A4C",
"# 	c #928244",
"$ 	c #BAB25C",
"% 	c #AEA64C",
"& 	c #6A6E44",
"* 	c #8A8644",
"= 	c #AA964C",
"- 	c #928E44",
"; 	c #867A3C",
"> 	c #7A6E3C",
", 	c #A29644",
"' 	c #9E8E44",
") 	c #86823C",
"! 	c #AA9E4C",
"~ 	c #62663C",
"{ 	c #B6A64C",
"] 	c #7E7634",
"^ 	c #A29E54",
"/ 	c #828244",
"( 	c #928E54",
"_ 	c #B29E4C",
": 	c #6E663C",
"< 	c #7E7A3C",
"[ 	c #928A44",
"} 	c #CABE6C",
"| 	c #72764C",
"1 	c #867A54",
"2 	c #A2965C",
"3 	c #726E44",
"4 	c #AA9E64",
"5 	c #7E7A4C",
"6 	c #AAA664",
"7 	c #8E7E44",
"8 	c #9E8E54",
"9 	c #86825C",
"0 	c #766A3C",
"a 	c #C6BA6C",
"b 	c #8E8E4C",
"c 	c #867E3C",
"d 	c #7A764C",
"e 	c #726E4C",
"f 	c #9E964C",
"g 	c #BAB26C",
"h 	c #8A8A64",
"i 	c #9A8E44",
"j 	c #7A6E44",
"k 	c #A29A4C",
"l 	c #BAAE54",
"m 	c #6E6A44",
"n 	c #9A8A44",
"o 	c #8A8A44",
"p 	c #AEA244",
"q 	c #9A8E54",
"r 	c #8E8244",
"s 	c #928644",
"t 	c #B2AA54",
"u 	c #A6924C",
"v 	c #7E7E44",
"w 	c #C2B264",
"x 	c #8A8654",
"y 	c #AA9A44",
"z 	c #969244",
"A 	c #A29654",
"B 	c #9E9244",
"C 	c #86824C",
"D 	c #6A6644",
"E 	c #B6AA54",
"F 	c #82763C",
"G 	c #A29E5C",
"H 	c #B2A24C",
"I 	c #928A54",
"J 	c #CEC67C",
"K 	c #7E7E54",
"L 	c #867E4C",
"M 	c #72724C",
"N 	c #9E9A4C",
"O 	c #7A7244",
"P 	c #6A623C",
"Q 	c #B2A65C",
"R 	c #867A4C",
"S 	c #AA9E54",
"T 	c #969254",
"U 	c #6E664C",
"V 	c #CAC274",
"W 	c #A29A5C",
"X 	c #727244",
"Y 	c #B2AA64",
"Z 	c #9E9254",
"` 	c #82764C",
" .	c #6E6A4C",
"..	c #928654",
"+.	c #AA9A54",
"@.	c #9A965C",
"#.	c #7A7A54",
"$.	c #BEB664",
"%.	c #B2A64C",
"&.	c #8E8644",
"*.	c #968E44",
"=.	c #8A7A3C",
"-.	c #7A7234",
";.	c #A69644",
">.	c #8A823C",
",.	c #7A7644",
"'.	c #968E54",
").	c #72663C",
"!.	c #827A3C",
"~.	c #968A44",
"{.	c #867E54",
"].	c #AAA25C",
"^.	c #827A4C",
"/.	c #8E8254",
"(.	c #8A7E3C",
"_.	c #BAB674",
":.	c #9A9244",
"<.	c #A69A4C",
"[.	c #B6AE6C",
"}.	c #9A8A54",
"|.	c #AAA254",
"1.	c #9A9254",
"2.	c #968644",
"3.	c #BAAA54",
"4.	c #B6A24C",
"5.	c #7E7244",
"6.	c #A69A5C",
"7.	c #62623C",
"8.	c #9A964C",
"9.	c #6E724C",
"0.	c #82825C",
"a.	c #6A6A3C",
"b.	c #C2B664",
"c.	c #9E965C",
"d.	c #9E9A5C",
"e.	c #7A7A44",
"f.	c #BEB25C",
"g.	c #A28E4C",
"h.	c #AE9E44",
"i.	c #66663C",
"j.	c #A69E4C",
"k.	c #767644",
"l.	c #766E3C",
"m.	c #AEA664",
"n.	c #8A8254",
"o.	c #7E764C",
"p.	c #766E4C",
"q.	c #726A40",
"r.	c #9E8A4C",
"s.	c #8E8A47",
"t.	c #827E42",
"u.	c #AE9A4C",
"v.	c #A2924C",
"w.	c #A69E5E",
"x.	c #76724D",
"y.	c #6E6244",
"z.	c #CEC278",
"A.	c #A29254",
"B.	c #7E723C",
"C.	c #8A7E55",
"D.	c #AEA25C",
"E.	c #666244",
"F.	c #6E6E44",
"G.	c #8E8654",
"H.	c #A69654",
"I.	c #8A824C",
"J.	c #968A54",
"K.	c #827E54",
"L.	c #8A7E4C",
"M.	c #AE9E54",
"N.	c #767244",
"O.	c #726A4C",
"P.	c #AE9A54",
"Q.	c #7E7644",
"R.	c #BEB674",
"S.	c #AEA254",
"T.	c #92824C",
"U.	c #AEA654",
"V.	c #8A864C",
"W.	c #928E4C",
"X.	c #867A44",
"Y.	c #A2964C",
"Z.	c #9E8E4C",
"`.	c #868244",
" +	c #B6A654",
".+	c #7E763C",
"++	c #928E5C",
"@+	c #B29E54",
"#+	c #6E6644",
"$+	c #7E7A44",
"%+	c #928A4C",
"&+	c #CABE74",
"*+	c #7E7A54",
"=+	c #9E8E5C",
"-+	c #766A44",
";+	c #867E44",
">+	c #9E9654",
",+	c #BAB274",
"'+	c #9A8E4C",
")+	c #7A6E4C",
"!+	c #A29A54",
"~+	c #BAAE5C",
"{+	c #9A8A4C",
"]+	c #AEA24C",
"^+	c #9A8E5C",
"/+	c #8E824C",
"(+	c #92864C",
"_+	c #B2AA5C",
":+	c #AA9A4C",
"<+	c #96924C",
"[+	c #9E924C",
"}+	c #B6AA5C",
"|+	c #827644",
"1+	c #B2A254",
"2+	c #9E9A54",
"3+	c #7A724C",
"4+	c #A29A64",
"5+	c #B2AA6C",
"6+	c #9E925C",
"7+	c #827654",
"8+	c #B2A654",
"9+	c #8E864C",
"0+	c #968E4C",
"a+	c #8A7A44",
"b+	c #7A723C",
"c+	c #A6964C",
"d+	c #8A8244",
"e+	c #968E5C",
"f+	c #726644",
"g+	c #827A44",
"h+	c #968A4C",
"i+	c #AAA264",
"j+	c #827A54",
"k+	c #8E825C",
"l+	c #8A7E44",
"m+	c #9A924C",
"n+	c #A69A54",
"o+	c #B6AE74",
"p+	c #9A925C",
"q+	c #96864C",
"r+	c #BAAA5C",
"s+	c #B6A254",
"t+	c #7E724C",
"u+	c #A69A64",
"v+	c #9A9654",
"w+	c #6A6A44",
"x+	c #7A7A4C",
"y+	c #BEB264",
"z+	c #AE9E4C",
"A+	c #666644",
"B+	c #A69E54",
"C+	c #76764C",
"D+	c #766E44",
"E+	c #AEA66C",
"F+	c #7E7654",
"G+	c #766E54",
"!+!+!+k !+n+<.<.Y.Y., Y., ;.:+y u.u.u.u.u.P.P.+.H.g.{+s r l+l+l+(+q c.4+c.p+9+d+g+X.;+I./+%+J.'.1.1.>+>+1.1.1.0+%+&.9+%+'.'.e+G./.C.C.1 7+o.C+C+x+#.@ & ~ 7.i.#.0.h 9 d 3+3+x.x.t+F+j+j+7+t+t+t+t+` 1 R ",
"s s s ~.B B Y.Y.c+c+c+:+u.H _ H _ z+z+:++.! +.= v.'+{+}.{+# # (+h+c.2 2 '.(+l+X.g+;+/+9+s.I 0+1.1.>+c.W w.W !+>+d+d+c I./+../.a+` ` t+t+3 #+x.C+| | F.w+i.i.w+C+v 9 K d v 0.j+^.o.Q.t+)+t+t+)+t+1 k+C.C.",
"r s ~.'+Y.:+P.! ! S z+S.@+%.s+%.{ H H _ P.M.S +.H.v.Z.{+h+(+(+J.q 6+^+J.I.X.g+; ;+;+l+9+%+'.q 1.>+>+W W ].i+w.>+c !..+.+|+X.^.` 5.j j -+f+y.e e A+A+A+D & m 3 N.k.5 x+x+$+v $+5 ` g+L ^.^.^.^.t+t+` ` ` ",
"s 2.' v.+.+.z+P.u.u.:+_ ]+z+p H h.h.u.! z+! M.+.H.[+Z.s # # q+h+J.q ..T.X.Q.B.|+d+;+;+&.0+v+>+>+>+>+!+w.!+W W 1.;+F B.-.b+Q.|+Q.t+` t+t+q.D O. .. . 7.w+e X X X k.e.$+$+t./ t./ t.^.g+L L L 1 1 R ` ` o.",
"r.r.u = M.M.1+M.z+z+z+_ H _ h.]+p p ! h.z+z+z+M.+.Y.A.{+h+{+q '+J.h+I.X.F F X.L.(+%+q A w.6 i+w.^ v+>+G B+w.w.W W.d+g+.+.+Q.|+^.` ` t+)+).P y.D E.D U m e 3 N.,.$+/ v e.t.c t.) `.;+t.K.;+L L {.C.{.C.L.",
"g.v.c+= u.@+z+H _ s+H  +{ H p H ]+]+H ]+1+S.1+]+4 +.H.[+{+h+h+q+q+/+7 a+X.X./+(+>+w.6 g R.R.$.[.Q ].6 D.5+5+5+m.6.c.q I I.L.L R ^.` 5.0 y.y. .e G+G+x.x.N.,.,.C o s.s.o * * o * * &.r /+I.x x /.G.G.(+h ",
"g.g.c+= :+u.u.M._ @+H 4.%.%.% %.%.% %.% H S.S ! n+<.A.'+{+q+h+h+q+(+r 7 l+l+(+J.2 4 m.[.g _.R._.o+5+[.5+[.[.o+[.E+E+4 6+'.I.L R g+5.> 0 q.q.-+x.d *+j+*+5 / V.b T 2+v+<++ z <+<+<+W.b s.9+9+I I I ++J.'.",
"' v.u = u.M.@+H ]+H H H H %.%.% % ]+]+S.|.|.! +.Y.[+[+{+~.n {+{+{+{+q+s s s {+8 A !+W w.i+[.[.,+,+g 5+5+5+o+,+,+o+5+E+W '.../+I ..I.g+b+l.l.d o.K.{.n.n.x ++T c.d.d.v++ <+m++ <+<+<+0+%+I s.9+G.I I ++I ",
"u c+:+u._ ]+z+_ H H %.8+ +3.l E t 8+%.% S.M.S n+Y.[+i h+~.~.~.'+{+'+'+{+{+h+0+'+q Z >+>+1.W w.m.E+5+m.m.m.E+,+,+5+5+E+4 W 2 6+4+4+u+^+I /+l+n./.G.I ( e+'.p+4+w.G G 2+<+<+W.<+W.W.W.W.s.%+s.( ( W.'.'.'.",
"P.M.M.S.S.H 1+8+1+ + +3.3.~+~+E E t S.S.M.S <.Y.[+Z.i 2.2.q+n {+i '+Z.[+Z.v.' i n m+A T 0+s.9+%+%+%+%+I '.1.c.4+4 4 D.4+c.1.>+w.i+E+6 w.W W 1.1.1.T q 1.1.v+v+d.d.1.T 0+( 0+<+1.1.T + T T <+W.<+T T T T ",
"1+1+1+1+1+H H H H  +{ }+l U.Q 8+S.U.S.! k Y.[+[+i n i {+i {+i Z.Z.[+v.H.H.H.v.B 2.m+A '.(+l+; !.X.;+;+l+l+l+;+`.9+I '.9+d+g+; r s.1.>+W W w.2+>+>+8.m+m+1.1.<+m+T W.W.%+W.I W.<+1.1.v+<+T W.s.s.s.o o s.",
"1+8+8+8+% S.]+]+]+]+]+]+]+S.|.|.|.|.j.^ Y.i i ~.~.~.~.[+v.Y.v.v.v.v.+.S S.S.+.A ' '+q %+9+;+!.|+t./+%+'.9+d+F B..+!.r d+`.] ] .+!.(.r s.<+m+m+8.8.8.8.f f m+m+%+%+(+9+9+9+* I s.W.'.T W.W.b b * * * * * ",
"1+%.%.H % ]+]+]+]+S.U.|.|.! S |.S S <.Y.f i i i [+Y.f Y.c+c+Y.c+<.B+S.Q Q Q +.Y.n '+{+%+(+(+&.r &.(+I '.%+r F ] .+c 9+s s.;+t.; c ) r s *.*.*.*.i m+8.8.v+1.m+h+%+&.d+l+d+`.9+I <+T c.v+m+0+- s.s.o * s.",
"% U.% % ]+]+]+% 8+t 8+8+1+S.S M.S n+<.k , k <.<.|.|.S.<.Y.k <.<.S M.D.D.M.B+Y.[+~.2.(+q+%+q 8 q h+# s s (+s.>.c r 9+'+T m+- s.) c >.&.%+0+1.0+m+m+8.>+>+f v+1.<+%+9+9+d+;+!.d+&.'.q v+1.1.0+0+*.%+0+<+W.",
"8+8+8+%.]+% S.% 8+8+8+S.S.m.S.S.S.S S S ! ! ]+! 1+8+t U.S.S.|.M.S ! n+!+v.[+i '+~.~.# # s '.'+q '.0+1.Z A >+[+m+f f A >+>+m+*.s.* * s.%+<+v+8.v+f f !+!+A 2+>+>+>+m+T 0+r !.;+d+s.%+0+0+T m+'.1.1.T 1.1.",
"y+$.f.$ ~+8+8+8+8+8+1+]+S.z+|.S B+S S ! S.S.S.Q 8+8+ + +Q S.S.S S A Y.v.[+[+'+n {+q+(+T.7 s %+0+'+h+'+Z >+!+1.m+[+m+m+m+m+m+1.0+h+&.s %+q [+>+N f 2+f 2+N >+>+8.m+<+0+'.&.d+d+c l+l+d+9+%+%+0+W.%+I s.I ",
"z.V &+a a f.~+r+}+}+ +S.S.! ! :+<.<.! S U.Q t _+}+_+_+8+8+M.j.Y.v.' '+' {+{+h+(+# # 7 a+F a+l+&.h+h+m+A W B+>+>+m+0+0+m+1.2+W W 2 T <+0+T Z A !+k ^ !+!+!+k >+>+>+8.<+'.%+[ (+* `.;+;+X.;+;+l+;+X.^.$+g+",
"z.J z.z.a &+b.b.b.w ~+r+E 1+S.! j.<.! |.8+_+~+~+}+}+8+_+m.|.n+[+[+[+[+Z [+[+h+2.r r # l+=.c l+h+0+Z A 6.S 4 4 !+[+[+[+>+!+].m.Y 5+D.4 G W d.!+^ ^ !+B+B+B+!+^ 2+f Z m+<+m+p+0+J./+l+g+g+Q.5.5.j O D+j p."};
