/* XPM */
static char * tuxwine_xpm[] = {
"20 20 11 1",
" 	c None",
".	c #FFFFFF",
"+	c #000000",
"@	c #C3C3C3",
"#	c #C0C0C0",
"$	c #FC0505",
"%	c #101010",
"&	c #303030",
"*	c #E0A008",
"=	c #FFDCA8",
"-	c #808080",
"....................",
"........++++........",
"........+++++.......",
".......+@+#++.......",
".$$$$$.+%&+@+.......",
"..$$$..+***#+.......",
"...$...+***#+.......",
"...+...+=*..++......",
"...+..+-.....+......",
"..+++.+......-+.....",
".....+...#....++....",
".....+..##....++....",
"....+#..#.....+++...",
"....+#..#.....+++...",
"...***.......*++*...",
"..*****.....#*****..",
"..*****.....+*****..",
"...*****..+++****...",
".....*..+++++.**....",
"...................."};
