/* XPM */
static char * vertborder_xpm[] = {
"20 246 256 2",
"  	c None",
". 	c #020204",
"+ 	c #0286E2",
"@ 	c #BA020C",
"# 	c #B08D04",
"$ 	c #C65604",
"% 	c #02CA35",
"& 	c #C80224",
"* 	c #DE2A04",
"= 	c #07E80F",
"- 	c #0247C9",
"; 	c #C702B7",
"> 	c #4502DF",
", 	c #C1D604",
"' 	c #02C889",
") 	c #07AE04",
"! 	c #BE6B04",
"~ 	c #FE248C",
"{ 	c #0222F4",
"] 	c #46B604",
"^ 	c #02B285",
"/ 	c #04D90E",
"( 	c #EB0308",
"_ 	c #ED9104",
": 	c #E9029E",
"< 	c #0604D0",
"[ 	c #E24304",
"} 	c #2202B4",
"| 	c #3EFE2C",
"1 	c #FE45A9",
"2 	c #A2FE1C",
"3 	c #02EE8C",
"4 	c #4622FC",
"5 	c #FE1529",
"6 	c #D2A204",
"7 	c #FE3691",
"8 	c #FE13A2",
"9 	c #6902E3",
"0 	c #FEC4E4",
"a 	c #E7025F",
"b 	c #FE42D8",
"c 	c #02B8A7",
"d 	c #02D9A6",
"e 	c #02D655",
"f 	c #02BE53",
"g 	c #02C860",
"h 	c #D16304",
"i 	c #E83504",
"j 	c #3013FC",
"k 	c #FED4E6",
"l 	c #4813FC",
"m 	c #FEA5D9",
"n 	c #E705F9",
"o 	c #B63B04",
"p 	c #0215C4",
"q 	c #FEB5DA",
"r 	c #1EFE2C",
"s 	c #24FEDA",
"t 	c #F632FC",
"u 	c #02B6E0",
"v 	c #0299C0",
"w 	c #17D804",
"x 	c #3702D8",
"y 	c #5A02CF",
"z 	c #F30304",
"A 	c #FE68AE",
"B 	c #8502E9",
"C 	c #FE5194",
"D 	c #FE346E",
"E 	c #026EBC",
"F 	c #02C6D6",
"G 	c #FE22D4",
"H 	c #02EAE3",
"I 	c #FECDE2",
"J 	c #0EFE0C",
"K 	c #FE83C9",
"L 	c #1702D1",
"M 	c #02CF56",
"N 	c #4242FC",
"O 	c #02E125",
"P 	c #D45804",
"Q 	c #FE3BAF",
"R 	c #FE1DDA",
"S 	c #02C0AD",
"T 	c #02BB6C",
"U 	c #CA1204",
"V 	c #2BAD04",
"W 	c #FE52DB",
"X 	c #FE3204",
"Y 	c #B80294",
"Z 	c #C802EC",
"` 	c #FE2DB7",
" .	c #F90395",
"..	c #DFFE24",
"+.	c #FE0653",
"@.	c #02D6E9",
"#.	c #F67A04",
"$.	c #02D015",
"%.	c #460AFC",
"&.	c #02B04B",
"*.	c #0236B9",
"=.	c #FE1DA4",
"-.	c #7A02CF",
";.	c #FEBCE1",
">.	c #2299FC",
",.	c #3B05FB",
"'.	c #FE97CE",
").	c #82AB04",
"!.	c #02E861",
"~.	c #FE4AAD",
"{.	c #FC6706",
"].	c #FEADDE",
"^.	c #FE06D2",
"/.	c #FE0E27",
"(.	c #C7025F",
"_.	c #02A7C3",
":.	c #F04904",
"<.	c #FE144C",
"[.	c #FE35BA",
"}.	c #FEDCEB",
"|.	c #02F6F4",
"1.	c #FEE3F1",
"2.	c #FE0B5D",
"3.	c #228AFC",
"4.	c #4604F7",
"5.	c #02CEAB",
"6.	c #EA0E04",
"7.	c #2B03F8",
"8.	c #FD42F3",
"9.	c #9A66FC",
"0.	c #8232FC",
"a.	c #924AFC",
"b.	c #4AFEB4",
"c.	c #E2C604",
"d.	c #DEBE04",
"e.	c #FE72C4",
"f.	c #025EC4",
"g.	c #5E52FC",
"h.	c #B3AE04",
"i.	c #A702DB",
"j.	c #243EFC",
"k.	c #027EEC",
"l.	c #FE262E",
"m.	c #2E46FC",
"n.	c #4638FC",
"o.	c #C646FC",
"p.	c #04FCA0",
"q.	c #FEAA34",
"r.	c #F85404",
"s.	c #B97B04",
"t.	c #B8A004",
"u.	c #02FA66",
"v.	c #26D2FC",
"w.	c #2A5AFC",
"x.	c #6AFE0E",
"y.	c #FED620",
"z.	c #A612FC",
"A.	c #E262FC",
"B.	c #2622FC",
"C.	c #CAFE1C",
"D.	c #5246FC",
"E.	c #FEF62C",
"F.	c #1ED6FC",
"G.	c #226AFC",
"H.	c #22FE54",
"I.	c #9602D4",
"J.	c #0712F9",
"K.	c #DACE04",
"L.	c #DA02CC",
"M.	c #02BEC4",
"N.	c #FE0EA0",
"O.	c #720EFC",
"P.	c #B20243",
"Q.	c #028EC1",
"R.	c #D702A8",
"S.	c #DB0268",
"T.	c #FEC634",
"U.	c #BA02F8",
"V.	c #8ABA04",
"W.	c #FC1C0C",
"X.	c #FE3DC7",
"Y.	c #17FBEF",
"Z.	c #5E16FC",
"`.	c #02F22C",
" +	c #FE0EC4",
".+	c #DE0604",
"++	c #0252F4",
"@+	c #FE3C54",
"#+	c #02D2E5",
"$+	c #FE3C23",
"%+	c #FE1E74",
"&+	c #36FEEC",
"*+	c #03DEE1",
"=+	c #FE2DD4",
"-+	c #02EF56",
";+	c #FE8E2C",
">+	c #16F2FC",
",+	c #680EFC",
"'+	c #E94B04",
")+	c #FE265C",
"!+	c #9A0EFC",
"~+	c #17FE71",
"{+	c #02E2B8",
"]+	c #02E04F",
"^+	c #5A03F7",
"/+	c #FE6A34",
"(+	c #1AFEA4",
"_+	c #36FE14",
":+	c #1A06FB",
"<+	c #E33C04",
"[+	c #474BFC",
"}+	c #8E70FC",
"|+	c #FA5E04",
"1+	c #022DE4",
"2+	c #02A0CC",
"3+	c #02B0C2",
"4+	c #02F1C2",
"5+	c #FE53B2",
"6+	c #0235E5",
"7+	c #0256FC",
"8+	c #280CFC",
"9+	c #3D15FC",
"0+	c #DA1704",
"a+	c #5838FC",
"b+	c #021EB4",
"c+	c #FE8CC1",
"d+	c #021EF4",
"e+	c #02AA33",
"f+	c #FD032D",
"g+	c #F602AF",
"h+	c #0CC2FC",
"i+	c #18DF04",
"j+	c #0292DF",
"k+	c #D10AFC",
"l+	c #5EB604",
"m+	c #DE0AFC",
"n+	c #CE6C04",
"o+	c #625EFC",
"p+	c #FE7BBF",
"q+	c #02B06E",
"r+	c #2E52FC",
"s+	c #FC0270",
"t+	c #7A05FC",
"u+	c #FA3AF0",
"v+	c #04FED9",
"w+	c #02EA31",
"x+	c #E5022B",
"y+	c #0704FB",
"z+	c #FD4604",
"A+	c #624EFC",
"B+	c #02D132",
"C+	c #FD04F1",
"D+	c #02C6BC",
"E+	c #FE24B5",
"F+	c #02D16E",
"G+	c #FE1278",
". . . . . . . . . . . . . . . . . . . . ",
"  . . . . . . . . . . . . . . . . . .   ",
"    . . . . . . . . . . . . . . . .     ",
"      . . . . . . . . . . . . . .       ",
"        . . . . . . . . . . . .         ",
"          q q ;.].'.m 1 5+1 >.          ",
"          I q q q ;.;.].c+1 W           ",
"          ].I ;.;.q ;.;.;.].A           ",
"          0 I 0 0 ;.q ;.;.m '.          ",
"          I I ;.m ].0 0 0 I k           ",
"          }.I 0 t r '.0 0 0 0           ",
"          }.;.0 @+I.u+I 0 I 1.          ",
"          }.I 1 y $.=.].I I k           ",
"          k I r M B+S 1 I k 1.          ",
"          1.I ~+f g L.p+k }.k           ",
"          I k K ^.S (+0 I }.1.          ",
"          1.}.k v+..m k }.I k           ",
"          1.I k m p+I I }.}.1.          ",
"          1.1.I q m ;.k k k k           ",
"          }.}.k k 0 I k }.}.1.          ",
"          1.}.k k }.}.}.}.}.1.          ",
"          }.1.}.k }.1.1.1.1.1.          ",
"          1.1.}.}.1.}.}.1.1.}.          ",
"          }.1.1.}.}.1.1.1.1.1.          ",
"          1.}.}.}.1.}.1.  1.1.          ",
"          k k }.1.1.1.1.1.1.1.          ",
"          1.k k 1.}.}.1.1.1.1.          ",
"          k }.}.}.1.1.1.1.1.1.          ",
"          1.k 1.}.1.1.1.1.1.1.          ",
"          k k k 1.k 1.1.1.}.1.          ",
"          1.}.k }.}.1.}.1.1.}.          ",
"          k k }.1.}.}.1.1.1.1.          ",
"          1.k k }.1.}.1.1.}.}.          ",
"          k k }.1.}.}.}.}.}.1.          ",
"          1.k }.1.}.k 1.1.1.}.          ",
"          k 0 }.I k }.k k }.1.          ",
"          1.}.I k }.k }.1.k }.          ",
"          0 1.k }.}.k I k 1.1.          ",
"          I k k k k I k 0 I I           ",
"          ;.I k I q 0 I k I I           ",
"          #+k I 0 0 ;.;.;.;.;.          ",
"          6.q I A '.;.q ;.].].          ",
"          F+c+q s @+t c+'.'.Q           ",
"          3+C ;.H.8 [.p+K ~.A           ",
"          `.&+~ ; T x.1 5+1 5+          ",
"          e e+G+f $.+.A.9.w.G.          ",
"          e O M E g m+B./.{.z+          ",
"          Q.$./ d @.p ( ( S.Z.          ",
"          9+$./ / ]+F : x+9 0+          ",
"          U.L - 6+6+%.|+r., 6.          ",
"          Z.g+7.y+7.[ $+_ z z           ",
"          ( r.x+S.$++.2.s+<+E+          ",
"          {.5 5 G+<.G+` =.+.+.          ",
"          5 %+[.` ~ E+` G++.[.          ",
"          l.Q E+[.X.[.` =.s+G+          ",
"          W.X.X.b [.[.` 8 #.~           ",
"          Q [.b X.[.[.` 8 8 G+          ",
"          b b b X.[.[.G g++.%+          ",
"          W u+b X.[.[.[.R +.8           ",
"          8.8.b X.X.[.` ` +.E+          ",
"          W b b b X.[.[.[.R 8           ",
"          b b b b b X.Q E+~ 8           ",
"          W 8.b X.b [.[.` R  .          ",
"          8.b b b X.` [.E++.q.          ",
"          W b b 1 X.[.` N.i <+          ",
"          ~.b 8.b X.[.[.=.+.K.          ",
"          W b b X.b b X.E+( <+          ",
"          W b b [.[.[.=.G+8 '+          ",
"          W b b [.[.X.E+=.i d.          ",
"          b 1 b X.X.X.` =.c.Z.          ",
"          W X.b X.Q b [.G+z d.          ",
"          b b b b X.[.E+8 _ ,           ",
"          W b b b X.[.=.+.i.,+          ",
"          b 8.8.b b Q ` ( , 9+          ",
"          W 8.8.b b X.` ( 6 x           ",
"          b 8.8.b X.Q [.+., 9+          ",
"          W b ~.[.X.X.E+( x >           ",
"          8.8.b X.[.` G+z x l           ",
"          W 8.8.b [.` s+_ x 4.          ",
"          [.b X.[.[. .2.c., 9+          ",
"          W b X.X.[.N.+.c.x 4.          ",
"          8.b 8.[.G N._ 9 4.9+          ",
"          1 [.b [.N.R 0+L.> t+          ",
"          [.Q X.E+G+#.9 x : 0+          ",
"          X.E+%+G+_ c.9 Z :.{.          ",
"          /.|+=.#._ Z ^+U.[ '+          ",
"          {.|+[ #._ > 4.4.t+z.          ",
"          6.:.x+S.n 4.%.:+8+{           ",
"          a ( k+^+,.t+k+1+6+j+          ",
"          %.k+O.%.7.:.{.:+y+J.          ",
"          d ,+Z.%.:+<.a+Z.Z.C+          ",
"          f < ^+l O.G D.4 {.w.          ",
"          D+f i.a :.a+n.R {.}+          ",
"          T f L y.a n.n.R #.o+          ",
"          f f T 2.=+}+n. +/.5+          ",
"          ) T $.^+C+G.F.- !+A           ",
"          f ^ B+% % $+..D+-.~.          ",
"          ) e+' $.% $.B+e U.W           ",
"          t.e+c e / % % e ' |           ",
"          h.c ^ F+]+H !.d M d           ",
"          o c c D+5.!.F+O {+5.          ",
"          # q+D+F ' 5.d H d !.          ",
"          t.).^ 5.S 5.5.{+F 5.          ",
"          q+).q+5.D+u S d {+4+          ",
"          T q+q+c ' ' 3+3+3+2+          ",
"          v q+).&.c 5.T c Q.u           ",
"          T f e+q+3+5.c 3+Q.2+          ",
"          ; ^ ^ q+).q+D+5._.u           ",
"          !+&.M ^ ^ q+q+q+v 3+          ",
"          o q+^ D+5.^ &.^ T g           ",
"          g T (.T T q+q+^ T c           ",
"          5.' Y o &.^ c 3+# '           ",
"          ]+D+f @ @ ).^ ^ q+q+          ",
"          c % T Q.Y o V &.^ g           ",
"          d g Y &.q+q+).) e+).          ",
"          S q+v f % q+^ ^ f P.          ",
"          {+% q+% q+&.S ^ P.P.          ",
"          f &.p b+' g &.q+} l           ",
"          e c I.*.' g T &.).P.          ",
"          g R./+C+> % % q+Y S.          ",
"          ' x.[+J ^.$.O f Y R.          ",
"          f 2 [+F.G+B+/ $.' R.          ",
"          F+2 N F.^.D+$.B+x S.          ",
"          v W.w.x.C+' $.' : 8           ",
"          ]+C+>.E.^.M.% : 2.2.          ",
"          5.^.v.y.m+' ' x.s )+          ",
"          f.8 H.2.^.*.f ..7 s           ",
"          g U.n B 9 f.' ;+C 5+          ",
"          / B+$.e / $.S C.A q           ",
"          B+w i+B+]+/ g =.e.I           ",
"          = w / e e / ]+ +~.q           ",
"          / O ]+O w+]+e < H.p+          ",
"          `./ e 3 !.w+]+@.s+5+          ",
"          ]+`.+ 6++ + w+w+L W           ",
"          2+p.+ d+y++ d++ 6+>.          ",
"          j+{ j+d+:+:+y+y+k.0+          ",
"          j+{ y+:+7+:+:+:+{ 7.          ",
"          + j+:+9+j 9+j j J.J.          ",
"          6+:+:+9+9+9+j 9+j 7.          ",
"          ++6+j %.l l 9+%.4 J.          ",
"          j+{ %.,.%.%.9+9+%.J.          ",
"          Y.y+> ,.%.,.%.9+4 f.          ",
"          9+7.[.i.%.9+%.l Z.8+          ",
"          u.L W B ,.%.9+,.4 j           ",
"          1+^+A+2.7.l 9+9+j 1+          ",
"          k.t+A+U 7.%.9+9+:+H           ",
"          u.9 o+; 4.%.%.8+j+2+          ",
"          3 7.(.7.,.j y+8+@.w+          ",
"          `.j+4.7.9+8+y+y+5.%           ",
"          / 3 6+y+y+y+d+6+B+]+          ",
"          -+]+u.6+k.+ y+6+$.5.          ",
"          O / 3 6+j+6+6+F $.!.          ",
"          = / e 3 + *+6+O / F           ",
"          w $.O ]+3 3 6+w e |.          ",
"          O ]+/ {+]+O ]+w e 2+          ",
"          / / O O O ]+/ / !.4+          ",
"          = w / O / O / / 5.F           ",
"          / w w / / $./ / d {+          ",
"          J i+/ $./ i+w+/ 5.5.          ",
"          u.w+= = `.]+!.d F F           ",
"          #+p.v+u.v+{+{+F v F           ",
"          w+@.v+u.{+3+5.2+F *+          ",
"          !.u.v+5.{+M._.2+F F           ",
"          / `.!.|.|.d u _.2+_.          ",
"          O O O M M #+*+e+3+2+          ",
"          $.$.B+q+F F u c ! '           ",
"          B+B+/ 5.5.3+D+F ).[           ",
"          g ^ e 5.D+F 5.2+v |+          ",
"          e p ' D+M.2+j+F M.[           ",
"          % c ' 2+2++ c 2+Q.V.          ",
"          g q+' 2+Q.+ Q.Q.u M.          ",
"          P.q+{+Q.j+3+2+3+u {+          ",
"          P.^ F d M.2+*+2+d *+          ",
"          V v d F D+5.*+D+5.4+          ",
"          g #+M.5.d F *+D+3+S           ",
"          D+*+#+3+F D+F 3+5.D+          ",
"          |.@.d 3+d F H F u f           ",
"          @.u F *+v F |.u _.{+          ",
"          H v F d H #+h+d S {+          ",
"          @.4+F F v d v+5.S 4+          ",
"          3 u d d F u |.#+_.{+          ",
"          2+d F F F d @.F 5.4+          ",
"          3+H F 5.D+F F 5.F d           ",
"          M.H d ^ c 3+5.5.5.4+          ",
"          d #+u ^ 3+F 3+F D+5.          ",
"          F @.*+3+c 5._.D+d 4+          ",
"          F @.H D+S 2+_.M.F d           ",
"          H v d D+c 4+d F D+*+          ",
"          |.{+H {+e 4+{+5.*+F           ",
"          2+d v+H v+4+*+e {+d           ",
"          {+*+#+|.@.4+*+!.{+M.          ",
"          F F 4+H 4+v+*+|.{+F           ",
"          d D+{+{+{+4+*+*+4+d           ",
"          c T 5.5.d #+|.|.4+@.          ",
"          ' ^ 5.v F H h+u H {+          ",
"          ^ T ^ _.2+3+u @._.2+          ",
"          {+5.5.5.v _.j+Q.c F+          ",
"          4+H {+H 2+2+M.V V *+          ",
"          {+d H u 2+2+'+V &.F           ",
"          5.{+H #+u <+z+c D+4+          ",
"          4+{+H j+&.b ! + F F           ",
"          H d D+q+:.$+2+u @.#+          ",
"          @.M.&.* $+t.u u @.4+          ",
"          3+[ o W.$ Q.u @.{+@.          ",
"          M.V h.).u 2+u F |.H           ",
"          _.V P 3+D+D+F 5.d 4+          ",
"          2+_.s.2+v F {+S 5.5.          ",
"          2+h.2+2+2+d h+{+D+V.          ",
"          h.P S Q.2+u d q+& 0+          ",
"          ] h.c M.3+! & f+x+f           ",
"          h.V.'+( W.D & S S #+          ",
"          <+<.o.@+%+o #+5.|.v+          ",
"          o.o.l.! S 5.#+H @.@.          ",
"          a.X ] u #+#+|.3 4+H           ",
"          |+c 3+u 2+*+#+S H v+          ",
"          c l+h._._.Q.d B+{+v+          ",
"          l+t.s.F F *+{+d {+u           ",
"          h h.D+c S 5.5.{+4+|.          ",
"          h.! S v 2+S D+4+d *+          ",
"          n+l+_.c c &.d !.4+4+          ",
"          n+'+W.~ a S H #+4+{+          ",
"          l.m.>+E+<.g / !.4+4+          ",
"          C >.s +.7  .F+5.{+{+          ",
"          W.[.E+_+j.0.f = {+4+          ",
"          5 T.` 1 ~.1 Z = ]+{+          ",
"          ~ c+p+7 5+C 8 M 5.4+          ",
"          X.D D A ~.'.%+!.S 5.          ",
"          n+2.Y.(+Y.~+: ^ o $           ",
"          i 2.G+=.G+)+x+o s.e+          ",
"          [ f++.f+6.T 2+S D+*+          ",
"          s.2.%+x+a @ c M.3+F           ",
"          f+j.` a f F+d F F 4+          ",
"          Y.W b.q.a M 5.d v F           ",
"          W ~.~.7 N *.g / 3+M.          ",
"          ].5+1 ~.W -.B+F+D+5.          ",
"          '.e.1 1 1 /+$.% d {+          ",
"          ;.].A W [.(+g+f d 5.          ",
"          0 ;.1 s+2.(+_+; {+{+          ",
"          1.;.7 R.-.a Q (.5.5.          ",
"          k I C 2.* @ (.^ 5.*+          ",
"          }.].1 =.f+[ f g M.5.          ",
"        . . . . . . . . . . . .         ",
"      . . . . . . . . . . . . . .       ",
"    . . . . . . . . . . . . . . . .     ",
"  . . . . . . . . . . . . . . . . . .   ",
". . . . . . . . . . . . . . . . . . . . "};
