/* XPM */
static char * wine_xpm[] = {
"20 20 5 1",
" 	c None",
".	c #000000",
"+	c #0EEF77",
"@	c #FC0505",
"#	c #2BF087",
"....................",
".++++++++++++++++++.",
".++++++++++++++++++.",
".+++++........+++++.",
".++++.++++++++.++++.",
".+++++........+++++.",
".+++++.@@@@@@.+++++.",
".++++++.@@@@.++++++.",
".+++++++.@@.+++++++.",
".+++++++.@@.+++++++.",
".++++++++..++++++++.",
".++++++++..++++++++.",
".++++++++..++++++++.",
".++++++++..++++++++.",
".++++++++..++++++++.",
".+++++++....+++++++.",
".#+++++......++++++.",
".+++++........+++++.",
".++++++++++++++++++.",
"...................."};
